# This file uses centimeters as units for non-parametric coordinates.

mtllib curve.mtl
g default
v -10.064836 -0.639119 9.920900
v -8.087028 -0.178448 9.893826
v -6.107541 0.247527 9.868799
v -4.123951 0.588778 9.848778
v -2.135227 0.824690 9.835021
v -0.141459 0.954440 9.827418
v 1.857071 0.983140 9.825624
v 3.860428 0.911456 9.829721
v 5.868804 0.734495 9.839939
v 7.882174 0.452373 9.856250
v 9.900418 0.068786 9.878508
v -10.079424 -0.330739 7.903101
v -8.103935 0.178898 7.873199
v -6.125321 0.624232 7.847107
v -4.141459 0.962474 7.827418
v -2.152136 1.185556 7.814392
v -0.157935 1.306299 7.807318
v 1.840796 1.331656 7.805769
v 3.843837 1.265364 7.809480
v 5.851542 1.101326 7.818879
v 7.864503 0.828980 7.834691
v 9.882818 0.442184 7.857037
v -10.090932 -0.085129 5.889062
v -8.116696 0.450890 5.857629
v -6.138023 0.896660 5.831611
v -4.153427 1.218322 5.812818
v -2.163359 1.426455 5.800700
v -0.168603 1.535328 5.794302
v 1.830253 1.558312 5.792907
v 3.833047 1.498476 5.796315
v 5.840059 1.349274 5.804870
v 7.852203 1.092030 5.819685
v 9.870095 0.714828 5.841514
v -10.098355 0.074533 3.880006
v -8.124562 0.621130 3.848033
v -6.145534 1.058675 3.822447
v -4.160343 1.369076 3.804379
v -2.169697 1.563845 3.792967
v -0.174434 1.662883 3.787188
v 1.824538 1.683531 3.785933
v 3.827016 1.629992 3.788958
v 5.833532 1.491409 3.796906
v 7.844946 1.248741 3.810831
v 9.862239 0.884150 3.831930
v -10.101155 0.138864 1.876589
v -8.127418 0.687286 1.844549
v -6.148239 1.120161 1.819146
v -4.162783 1.424273 1.801402
v -2.171850 1.613506 1.790341
v -0.176416 1.708067 1.784770
v 1.822643 1.726909 1.783621
v 3.824957 1.676914 1.786445
v 5.831236 1.543493 1.794105
v 7.842413 1.307375 1.807741
v 9.859540 0.946683 1.828638
v -10.099232 0.102197 -0.121064
v -8.125321 0.648162 -0.152893
v -6.146224 1.083928 -0.178394
v -4.160974 1.391316 -0.196390
v -2.170285 1.584322 -0.207750
v -0.174991 1.681762 -0.213491
v 1.824020 1.701561 -0.214699
v 3.826452 1.649217 -0.211730
v 5.832928 1.512607 -0.203830
v 7.844296 1.272444 -0.189962
v 9.861587 0.909020 -0.168866
v -10.092351 -0.036602 -2.112670
v -8.118308 0.504981 -2.144337
v -6.139444 0.946727 -2.170124
v -4.154866 1.267560 -2.188939
v -2.164671 1.471282 -2.200902
v -0.169797 1.576776 -2.207155
v 1.829109 1.599084 -2.208491
v 3.831780 1.541798 -2.205231
v 5.838716 1.394557 -2.196769
v 7.850783 1.141757 -2.182048
v 9.868520 0.767807 -2.160408
v -10.081362 -0.261993 -4.099262
v -8.106173 0.258463 -4.129532
v -6.127566 0.704244 -4.155631
v -4.143651 1.037789 -4.175256
v -2.154297 1.258709 -4.188244
v -0.159941 1.375676 -4.195130
v 1.838793 1.400871 -4.196675
v 3.841807 1.336297 -4.192997
v 5.849404 1.175988 -4.183729
v 7.862240 0.906312 -4.168070
v 9.880575 0.521656 -4.145699
v -10.067345 -0.555938 -6.082162
v -8.089868 -0.081260 -6.109640
v -6.110587 0.352415 -6.134918
v -4.126971 0.694977 -6.154907
v -2.138283 0.929293 -6.168707
v -0.144483 1.057395 -6.176271
v 1.854121 1.085052 -6.177975
v 3.857434 1.014060 -6.173931
v 5.865728 0.840648 -6.163814
v 7.879153 0.557993 -6.147435
v 9.897452 0.171728 -6.125110
v -10.051653 -0.885376 -8.063019
v -8.070741 -0.480491 -8.086306
v -6.089335 -0.088696 -8.108991
v -4.104970 0.238717 -8.128065
v -2.116372 0.476375 -8.141976
v -0.122874 0.611495 -8.149908
v 1.875744 0.638625 -8.151596
v 3.879153 0.564529 -8.147436
v 5.887741 0.385570 -8.136959
v 7.900944 0.105897 -8.120851
v 9.918109 -0.256461 -8.099909
v -10.036466 -1.206654 -10.044489
v -8.051203 -0.891717 -10.062468
v -6.066337 -0.570071 -10.080932
v -4.079776 -0.286041 -10.097328
v -2.090045 -0.071916 -10.109856
v -0.096242 0.056171 -10.117416
v 1.902349 0.085685 -10.119135
v 3.905701 0.013592 -10.115045
v 5.913683 -0.155845 -10.105308
v 7.925469 -0.405939 -10.090930
v 9.939754 -0.709735 -10.073501
vt 0.000000 0.000000
vt 0.100000 0.000000
vt 0.200000 0.000000
vt 0.300000 0.000000
vt 0.400000 0.000000
vt 0.500000 0.000000
vt 0.600000 0.000000
vt 0.700000 0.000000
vt 0.800000 0.000000
vt 0.900000 0.000000
vt 1.000000 0.000000
vt 0.000000 0.100000
vt 0.100000 0.100000
vt 0.200000 0.100000
vt 0.300000 0.100000
vt 0.400000 0.100000
vt 0.500000 0.100000
vt 0.600000 0.100000
vt 0.700000 0.100000
vt 0.800000 0.100000
vt 0.900000 0.100000
vt 1.000000 0.100000
vt 0.000000 0.200000
vt 0.100000 0.200000
vt 0.200000 0.200000
vt 0.300000 0.200000
vt 0.400000 0.200000
vt 0.500000 0.200000
vt 0.600000 0.200000
vt 0.700000 0.200000
vt 0.800000 0.200000
vt 0.900000 0.200000
vt 1.000000 0.200000
vt 0.000000 0.300000
vt 0.100000 0.300000
vt 0.200000 0.300000
vt 0.300000 0.300000
vt 0.400000 0.300000
vt 0.500000 0.300000
vt 0.600000 0.300000
vt 0.700000 0.300000
vt 0.800000 0.300000
vt 0.900000 0.300000
vt 1.000000 0.300000
vt 0.000000 0.400000
vt 0.100000 0.400000
vt 0.200000 0.400000
vt 0.300000 0.400000
vt 0.400000 0.400000
vt 0.500000 0.400000
vt 0.600000 0.400000
vt 0.700000 0.400000
vt 0.800000 0.400000
vt 0.900000 0.400000
vt 1.000000 0.400000
vt 0.000000 0.500000
vt 0.100000 0.500000
vt 0.200000 0.500000
vt 0.300000 0.500000
vt 0.400000 0.500000
vt 0.500000 0.500000
vt 0.600000 0.500000
vt 0.700000 0.500000
vt 0.800000 0.500000
vt 0.900000 0.500000
vt 1.000000 0.500000
vt 0.000000 0.600000
vt 0.100000 0.600000
vt 0.200000 0.600000
vt 0.300000 0.600000
vt 0.400000 0.600000
vt 0.500000 0.600000
vt 0.600000 0.600000
vt 0.700000 0.600000
vt 0.800000 0.600000
vt 0.900000 0.600000
vt 1.000000 0.600000
vt 0.000000 0.700000
vt 0.100000 0.700000
vt 0.200000 0.700000
vt 0.300000 0.700000
vt 0.400000 0.700000
vt 0.500000 0.700000
vt 0.600000 0.700000
vt 0.700000 0.700000
vt 0.800000 0.700000
vt 0.900000 0.700000
vt 1.000000 0.700000
vt 0.000000 0.800000
vt 0.100000 0.800000
vt 0.200000 0.800000
vt 0.300000 0.800000
vt 0.400000 0.800000
vt 0.500000 0.800000
vt 0.600000 0.800000
vt 0.700000 0.800000
vt 0.800000 0.800000
vt 0.900000 0.800000
vt 1.000000 0.800000
vt 0.000000 0.900000
vt 0.100000 0.900000
vt 0.200000 0.900000
vt 0.300000 0.900000
vt 0.400000 0.900000
vt 0.500000 0.900000
vt 0.600000 0.900000
vt 0.700000 0.900000
vt 0.800000 0.900000
vt 0.900000 0.900000
vt 1.000000 0.900000
vt 0.000000 1.000000
vt 0.100000 1.000000
vt 0.200000 1.000000
vt 0.300000 1.000000
vt 0.400000 1.000000
vt 0.500000 1.000000
vt 0.600000 1.000000
vt 0.700000 1.000000
vt 0.800000 1.000000
vt 0.900000 1.000000
vt 1.000000 1.000000
vn -0.233124 0.959204 0.159941
vn -0.230466 0.959533 0.161807
vn -0.229861 0.961561 0.150216
vn -0.235685 0.959348 0.155254
vn -0.204044 0.962817 0.177059
vn -0.189150 0.969465 0.156074
vn -0.156575 0.970936 0.181018
vn -0.135702 0.978877 0.152920
vn -0.101091 0.978886 0.177658
vn -0.083103 0.985779 0.146059
vn -0.044404 0.983941 0.172881
vn -0.034956 0.989781 0.138245
vn 0.012159 0.985202 0.170965
vn 0.009667 0.990807 0.134939
vn 0.069084 0.982422 0.173423
vn 0.055022 0.988494 0.140899
vn 0.124149 0.976255 0.177520
vn 0.104795 0.983458 0.147745
vn 0.176079 0.968174 0.177862
vn 0.157155 0.975725 0.152523
vn 0.182585 0.966982 0.177788
vn 0.182678 0.968141 0.171265
vn -0.237594 0.965607 0.105606
vn -0.253971 0.960123 0.116884
vn -0.186929 0.976762 0.104852
vn -0.129627 0.986594 0.099145
vn -0.077261 0.992741 0.092178
vn -0.031762 0.995835 0.085457
vn 0.008794 0.996505 0.083063
vn 0.050524 0.994851 0.087853
vn 0.098331 0.990666 0.094403
vn 0.152437 0.983157 0.100823
vn 0.182473 0.975900 0.119677
vn -0.237469 0.969763 0.056297
vn -0.263680 0.962323 0.066383
vn -0.180989 0.981992 0.054173
vn -0.122559 0.991200 0.050019
vn -0.071227 0.996428 0.045377
vn -0.028780 0.998729 0.041382
vn 0.007891 0.999165 0.040099
vn 0.046150 0.998017 0.042801
vn 0.091626 0.994683 0.047014
vn 0.145590 0.988013 0.051321
vn 0.178650 0.981780 0.064751
vn -0.233164 0.972416 0.006477
vn -0.267100 0.963636 0.008010
vn -0.175181 0.984518 0.005996
vn -0.117398 0.993070 0.005429
vn -0.067543 0.997704 0.004917
vn -0.027111 0.999622 0.004479
vn 0.007458 0.999963 0.004330
vn 0.043554 0.999041 0.004592
vn 0.087284 0.996171 0.005097
vn 0.139854 0.990156 0.005603
vn 0.176730 0.984234 0.007085
vn -0.237212 0.970470 -0.043811
vn -0.266516 0.962407 -0.052357
vn -0.180034 0.982769 -0.041870
vn -0.121401 0.991864 -0.038309
vn -0.070173 0.996933 -0.034649
vn -0.028206 0.999105 -0.031530
vn 0.007739 0.999503 -0.030565
vn 0.045367 0.998438 -0.032604
vn 0.090556 0.995240 -0.036013
vn 0.144411 0.988725 -0.039601
vn 0.179025 0.982559 -0.050269
vn -0.240422 0.966072 -0.094345
vn -0.260922 0.959475 -0.106430
vn -0.187631 0.977838 -0.092886
vn -0.129398 0.987761 -0.087092
vn -0.076249 0.993869 -0.080062
vn -0.031158 0.996776 -0.073933
vn 0.008519 0.997386 -0.071749
vn 0.049798 0.995864 -0.075997
vn 0.097648 0.991807 -0.082363
vn 0.152455 0.984334 -0.088563
vn 0.183804 0.977101 -0.107191
vn -0.236665 0.961150 -0.142060
vn -0.245666 0.957777 -0.149370
vn -0.191896 0.970561 -0.145560
vn -0.137021 0.980432 -0.141346
vn -0.083031 0.987512 -0.133887
vn -0.034572 0.991453 -0.125797
vn 0.009480 0.992419 -0.122534
vn 0.054801 0.990191 -0.128524
vn 0.104958 0.985172 -0.135723
vn 0.159065 0.977069 -0.141545
vn 0.186442 0.969054 -0.161783
vn -0.221988 0.958328 -0.179803
vn -0.219008 0.959760 -0.175771
vn -0.189484 0.962476 -0.194258
vn -0.141145 0.970230 -0.196807
vn -0.088715 0.977292 -0.192431
vn -0.037566 0.982004 -0.185085
vn 0.010493 0.983366 -0.181330
vn 0.059027 0.980452 -0.187697
vn 0.110378 0.974996 -0.192873
vn 0.161102 0.967721 -0.193811
vn 0.181196 0.961381 -0.207159
vn -0.194776 0.960600 -0.198266
vn -0.182109 0.966590 -0.180389
vn -0.175330 0.958372 -0.225348
vn -0.137070 0.960929 -0.240473
vn -0.089983 0.965311 -0.245108
vn -0.039265 0.969604 -0.241508
vn 0.011030 0.970985 -0.238885
vn 0.060837 0.968304 -0.242253
vn 0.110234 0.964123 -0.241486
vn 0.153791 0.960357 -0.232514
vn 0.162918 0.959326 -0.230545
vn -0.177162 0.966577 -0.185318
vn -0.177455 0.967413 -0.180612
vn -0.171809 0.959714 -0.222331
vn -0.143935 0.957821 -0.248719
vn -0.101208 0.959121 -0.264278
vn -0.047050 0.961520 -0.270676
vn 0.012987 0.962670 -0.270365
vn 0.071471 0.961162 -0.266571
vn 0.120718 0.958963 -0.256550
vn 0.156399 0.959144 -0.235758
vn 0.160705 0.959144 -0.232844
s 1
g pPlane1
usemtl initialShadingGroup
f 1/1/1 2/2/2 13/13/3 12/12/4
f 2/2/2 3/3/5 14/14/6 13/13/3
f 3/3/5 4/4/7 15/15/8 14/14/6
f 4/4/7 5/5/9 16/16/10 15/15/8
f 5/5/9 6/6/11 17/17/12 16/16/10
f 6/6/11 7/7/13 18/18/14 17/17/12
f 7/7/13 8/8/15 19/19/16 18/18/14
f 8/8/15 9/9/17 20/20/18 19/19/16
f 9/9/17 10/10/19 21/21/20 20/20/18
f 10/10/19 11/11/21 22/22/22 21/21/20
f 12/12/4 13/13/3 24/24/23 23/23/24
f 13/13/3 14/14/6 25/25/25 24/24/23
f 14/14/6 15/15/8 26/26/26 25/25/25
f 15/15/8 16/16/10 27/27/27 26/26/26
f 16/16/10 17/17/12 28/28/28 27/27/27
f 17/17/12 18/18/14 29/29/29 28/28/28
f 18/18/14 19/19/16 30/30/30 29/29/29
f 19/19/16 20/20/18 31/31/31 30/30/30
f 20/20/18 21/21/20 32/32/32 31/31/31
f 21/21/20 22/22/22 33/33/33 32/32/32
f 23/23/24 24/24/23 35/35/34 34/34/35
f 24/24/23 25/25/25 36/36/36 35/35/34
f 25/25/25 26/26/26 37/37/37 36/36/36
f 26/26/26 27/27/27 38/38/38 37/37/37
f 27/27/27 28/28/28 39/39/39 38/38/38
f 28/28/28 29/29/29 40/40/40 39/39/39
f 29/29/29 30/30/30 41/41/41 40/40/40
f 30/30/30 31/31/31 42/42/42 41/41/41
f 31/31/31 32/32/32 43/43/43 42/42/42
f 32/32/32 33/33/33 44/44/44 43/43/43
f 34/34/35 35/35/34 46/46/45 45/45/46
f 35/35/34 36/36/36 47/47/47 46/46/45
f 36/36/36 37/37/37 48/48/48 47/47/47
f 37/37/37 38/38/38 49/49/49 48/48/48
f 38/38/38 39/39/39 50/50/50 49/49/49
f 39/39/39 40/40/40 51/51/51 50/50/50
f 40/40/40 41/41/41 52/52/52 51/51/51
f 41/41/41 42/42/42 53/53/53 52/52/52
f 42/42/42 43/43/43 54/54/54 53/53/53
f 43/43/43 44/44/44 55/55/55 54/54/54
f 45/45/46 46/46/45 57/57/56 56/56/57
f 46/46/45 47/47/47 58/58/58 57/57/56
f 47/47/47 48/48/48 59/59/59 58/58/58
f 48/48/48 49/49/49 60/60/60 59/59/59
f 49/49/49 50/50/50 61/61/61 60/60/60
f 50/50/50 51/51/51 62/62/62 61/61/61
f 51/51/51 52/52/52 63/63/63 62/62/62
f 52/52/52 53/53/53 64/64/64 63/63/63
f 53/53/53 54/54/54 65/65/65 64/64/64
f 54/54/54 55/55/55 66/66/66 65/65/65
f 56/56/57 57/57/56 68/68/67 67/67/68
f 57/57/56 58/58/58 69/69/69 68/68/67
f 58/58/58 59/59/59 70/70/70 69/69/69
f 59/59/59 60/60/60 71/71/71 70/70/70
f 60/60/60 61/61/61 72/72/72 71/71/71
f 61/61/61 62/62/62 73/73/73 72/72/72
f 62/62/62 63/63/63 74/74/74 73/73/73
f 63/63/63 64/64/64 75/75/75 74/74/74
f 64/64/64 65/65/65 76/76/76 75/75/75
f 65/65/65 66/66/66 77/77/77 76/76/76
f 67/67/68 68/68/67 79/79/78 78/78/79
f 68/68/67 69/69/69 80/80/80 79/79/78
f 69/69/69 70/70/70 81/81/81 80/80/80
f 70/70/70 71/71/71 82/82/82 81/81/81
f 71/71/71 72/72/72 83/83/83 82/82/82
f 72/72/72 73/73/73 84/84/84 83/83/83
f 73/73/73 74/74/74 85/85/85 84/84/84
f 74/74/74 75/75/75 86/86/86 85/85/85
f 75/75/75 76/76/76 87/87/87 86/86/86
f 76/76/76 77/77/77 88/88/88 87/87/87
f 78/78/79 79/79/78 90/90/89 89/89/90
f 79/79/78 80/80/80 91/91/91 90/90/89
f 80/80/80 81/81/81 92/92/92 91/91/91
f 81/81/81 82/82/82 93/93/93 92/92/92
f 82/82/82 83/83/83 94/94/94 93/93/93
f 83/83/83 84/84/84 95/95/95 94/94/94
f 84/84/84 85/85/85 96/96/96 95/95/95
f 85/85/85 86/86/86 97/97/97 96/96/96
f 86/86/86 87/87/87 98/98/98 97/97/97
f 87/87/87 88/88/88 99/99/99 98/98/98
f 89/89/90 90/90/89 101/101/100 100/100/101
f 90/90/89 91/91/91 102/102/102 101/101/100
f 91/91/91 92/92/92 103/103/103 102/102/102
f 92/92/92 93/93/93 104/104/104 103/103/103
f 93/93/93 94/94/94 105/105/105 104/104/104
f 94/94/94 95/95/95 106/106/106 105/105/105
f 95/95/95 96/96/96 107/107/107 106/106/106
f 96/96/96 97/97/97 108/108/108 107/107/107
f 97/97/97 98/98/98 109/109/109 108/108/108
f 98/98/98 99/99/99 110/110/110 109/109/109
f 100/100/101 101/101/100 112/112/111 111/111/112
f 101/101/100 102/102/102 113/113/113 112/112/111
f 102/102/102 103/103/103 114/114/114 113/113/113
f 103/103/103 104/104/104 115/115/115 114/114/114
f 104/104/104 105/105/105 116/116/116 115/115/115
f 105/105/105 106/106/106 117/117/117 116/116/116
f 106/106/106 107/107/107 118/118/118 117/117/117
f 107/107/107 108/108/108 119/119/119 118/118/118
f 108/108/108 109/109/109 120/120/120 119/119/119
f 109/109/109 110/110/110 121/121/121 120/120/120
